<svg width="521" height="521" viewBox="0 0 521 521" fill="none" xmlns="http://www.w3.org/2000/svg">
<g clip-path="url(#clip0_9_23)">
<g>
<path d="M256.234 84.1586C300.735 48.5468 344.746 35.4878 375.906 53.4798C403.753 69.5625 416.218 106.897 410.981 158.626C410.539 163.04 409.921 167.533 409.235 172.076L404.956 195.173C404.94 195.165 404.92 195.158 404.902 195.151C404.886 195.217 404.872 195.284 404.854 195.35L383.211 187.378C383.213 187.368 383.199 187.355 383.199 187.346C368.433 182.742 353.381 179.11 338.139 176.476L337.919 176.423L307.494 172.358L307.467 172.355C307.433 172.307 307.39 172.274 307.353 172.226C290.369 170.482 273.306 169.614 256.234 169.624C239.123 169.613 222.026 170.504 205.011 172.293C195.056 186.123 185.812 200.45 177.314 215.22C168.772 230.009 161.01 245.235 154.058 260.833C161.01 276.433 168.772 291.657 177.314 306.446C185.825 321.275 195.098 335.655 205.095 349.526C205.11 349.526 205.125 349.528 205.141 349.531L205.116 349.572L205.103 349.594L205.119 349.617L224.162 373.924L224.293 374.06C234.149 385.893 244.763 397.071 256.071 407.525L256.252 407.715L273.906 422.255C273.848 422.312 273.789 422.366 273.73 422.421C273.752 422.441 273.777 422.459 273.802 422.477L254.9 438.548L254.866 438.576C224.268 462.731 193.987 476.229 167.991 476.229C156.986 476.392 146.136 473.617 136.562 468.188C108.712 452.105 96.2489 414.769 101.484 363.04C101.94 358.496 102.565 353.866 103.291 349.189C50.211 328.408 16.873 296.835 16.873 260.833C16.873 228.668 42.9657 199.172 90.3546 177.869C94.5263 175.993 98.867 174.202 103.291 172.513C102.565 167.817 101.94 163.17 101.484 158.626C96.2489 106.897 108.712 69.5625 136.562 53.4798C167.721 35.4878 211.732 48.5468 256.234 84.1586ZM125.179 356.738C124.791 359.645 124.436 362.501 124.166 365.339C119.91 406.802 128.556 437.035 147.718 448.307L147.995 448.438C168.413 460.23 202.038 450.855 238.838 422.421C222.032 406.596 206.608 389.363 192.733 370.914C169.851 368.128 147.251 363.387 125.179 356.738ZM142.388 289.62C137.048 304.219 132.665 319.153 129.266 334.32C143.85 338.857 158.712 342.443 173.76 345.059L174.477 345.218C168.717 336.45 163.06 327.226 157.588 317.866C152.116 308.507 147.083 299.064 142.388 289.62ZM107.665 195.285C104.963 196.412 102.312 197.538 99.7107 198.664C61.6275 215.845 39.6724 238.501 39.6724 260.833C39.6724 284.401 64.6168 308.863 107.648 326.517C112.955 304.049 120.164 282.077 129.198 260.833C120.181 239.633 112.977 217.705 107.665 195.285ZM174.391 176.567C159.141 179.234 144.078 182.885 129.3 187.498C132.642 202.373 136.931 217.019 142.139 231.347L142.303 232.029C147.067 222.569 152.048 213.243 157.503 203.8C162.958 194.357 168.616 185.302 174.391 176.567ZM168.211 68.2619C161.135 68.0967 154.142 69.8105 147.944 73.2284C128.7 84.352 119.961 114.466 124.116 155.842L124.115 156.329C124.385 159.166 124.739 162.022 125.128 164.911C147.208 158.308 169.806 153.584 192.682 150.788C206.564 132.333 222 115.1 238.822 99.2786C212.425 78.8713 187.649 68.2619 168.211 68.2619ZM364.573 73.2116C358.425 69.8151 351.492 68.101 344.472 68.2412L344.289 68.2449C324.852 68.2449 300.076 78.8543 273.68 99.2616C290.49 115.072 305.913 132.293 319.785 150.737C342.667 153.52 365.266 158.262 387.338 164.911C387.743 162.022 388.081 159.15 388.368 156.312C392.59 114.669 383.911 84.3783 364.573 73.2116ZM256.15 113.96C244.725 124.506 234.004 135.793 224.06 147.747C234.6 147.071 245.296 146.733 256.15 146.733C267.093 146.733 277.816 147.105 288.322 147.747C278.351 135.791 267.603 124.503 256.15 113.96Z" fill="#56C4DC"/>
<path d="M256.232 84.1586C300.735 48.5468 344.745 35.4878 375.904 53.4798C403.754 69.5625 416.217 106.897 410.982 158.626C410.54 163.04 409.919 167.533 409.235 172.076L404.957 195.173L404.902 195.151C404.886 195.217 404.87 195.284 404.855 195.35L383.211 187.378L383.2 187.346C368.434 182.742 353.379 179.11 338.14 176.476L337.92 176.423L307.492 172.358L307.467 172.354C307.433 172.307 307.39 172.274 307.354 172.226C290.37 170.482 273.307 169.614 256.232 169.624C239.124 169.613 222.026 170.504 205.011 172.293C195.056 186.123 185.812 200.45 177.314 215.22C168.772 230.009 161.01 245.235 154.058 260.833C161.01 276.433 168.772 291.657 177.314 306.446C185.825 321.275 195.098 335.655 205.095 349.526L205.141 349.531L205.116 349.572L205.103 349.594L205.119 349.617L224.163 373.924L224.293 374.06C234.149 385.893 244.764 397.071 256.069 407.525L256.253 407.715L273.907 422.255C273.848 422.312 273.789 422.366 273.73 422.421L273.801 422.477L254.9 438.548L254.866 438.576C224.269 462.733 193.987 476.229 167.991 476.229C156.986 476.392 146.136 473.617 136.562 468.188C108.712 452.105 96.2487 414.769 101.484 363.04C101.94 358.496 102.565 353.866 103.291 349.189C50.211 328.408 16.873 296.835 16.873 260.833C16.873 228.668 42.9657 199.172 90.3546 177.869C94.5263 175.993 98.867 174.202 103.291 172.513C102.565 167.817 101.94 163.17 101.484 158.626C96.2487 106.897 108.712 69.5625 136.562 53.4798C167.721 35.4878 211.732 48.5468 256.232 84.1586ZM125.179 356.738C124.791 359.645 124.436 362.501 124.166 365.339C119.91 406.802 128.556 437.035 147.718 448.307L147.995 448.438C168.413 460.23 202.038 450.855 238.838 422.421C222.032 406.596 206.608 389.363 192.733 370.914C169.851 368.128 147.251 363.387 125.179 356.738ZM142.388 289.62C137.048 304.219 132.665 319.153 129.266 334.32C143.85 338.857 158.712 342.443 173.76 345.059L174.477 345.218C168.717 336.45 163.06 327.226 157.588 317.866C152.116 308.507 147.083 299.064 142.388 289.62ZM107.665 195.285C104.963 196.412 102.312 197.538 99.7108 198.664C61.6275 215.845 39.6724 238.501 39.6724 260.833C39.6724 284.401 64.6168 308.863 107.648 326.517C112.955 304.049 120.164 282.077 129.198 260.833C120.181 239.633 112.977 217.705 107.665 195.285ZM174.391 176.567C159.141 179.234 144.078 182.885 129.3 187.498C132.642 202.373 136.931 217.019 142.139 231.347L142.303 232.029C147.067 222.569 152.048 213.243 157.503 203.8C162.958 194.357 168.616 185.302 174.391 176.567ZM168.211 68.2619C161.135 68.0967 154.142 69.8105 147.944 73.2284C128.7 84.352 119.961 114.466 124.116 155.842L124.115 156.329C124.385 159.166 124.739 162.022 125.128 164.911C147.208 158.308 169.806 153.584 192.682 150.788C206.564 132.333 222 115.1 238.82 99.2786C212.425 78.8713 187.649 68.2619 168.211 68.2619ZM364.574 73.2116C358.426 69.8151 351.493 68.101 344.473 68.2412L344.289 68.2449C324.85 68.2449 300.076 78.8543 273.678 99.2616C290.488 115.072 305.914 132.293 319.785 150.737C342.665 153.52 365.267 158.262 387.338 164.911C387.744 162.022 388.081 159.15 388.369 156.312C392.591 114.669 383.911 84.3783 364.574 73.2116ZM256.148 113.96C244.723 124.506 234.005 135.793 224.06 147.747C234.598 147.071 245.296 146.733 256.148 146.733C267.094 146.733 277.817 147.105 288.322 147.747C278.349 135.791 267.603 124.503 256.148 113.96Z" fill="#56C4DC"/>
</g>
<path d="M357.833 376C375.138 376 388.799 376 398.917 374.49C409.191 372.956 417.525 369.628 422.127 361.487L422.922 359.955C426.539 352.239 425.059 343.857 421.363 334.804C418.419 327.592 413.694 319.064 407.723 308.842L401.353 298.048L386.581 273.085L386.229 272.484C377.767 258.183 371.07 246.871 364.84 239.191C358.483 231.355 351.589 226 342.499 226C333.409 226 326.515 231.355 320.158 239.191C315.421 245.031 310.411 252.97 304.562 262.726L298.417 273.085L283.646 298.048L283.278 298.664C274.463 313.56 267.508 325.318 263.635 334.804C259.694 344.46 258.275 353.352 262.871 361.487L263.778 362.959C268.523 370.038 276.45 373.052 286.081 374.49C296.199 376 309.86 376 327.165 376H357.833ZM342.499 320.231C338.261 320.23 334.825 316.786 334.825 312.538V277.923C334.825 273.675 338.261 270.231 342.499 270.231C346.737 270.231 350.174 273.675 350.174 277.923V312.538C350.174 316.787 346.737 320.231 342.499 320.231ZM342.499 347.169C338.261 347.168 334.825 343.725 334.825 339.477V339.402C334.825 335.153 338.261 331.71 342.499 331.709C346.737 331.709 350.174 335.153 350.174 339.402V339.477C350.174 343.725 346.737 347.169 342.499 347.169Z" fill="#FFAA00"/>
</g>
<defs>
<clipPath id="clip0_9_23">
<rect width="520.981" height="520.981" fill="white"/>
</clipPath>
</defs>
</svg>
